<svg xmlns="http://www.w3.org/2000/svg" width="800" height="400" viewBox="0 0 800 400">
  <rect width="800" height="400" fill="#0d1117"/>
  <text x="400" y="38" fill="#e0e0e0" text-anchor="middle" font-size="18" font-weight="bold" font-family="PingFang SC, sans-serif">三种 AI 编程协作模式</text>
  <!-- 三列 -->
  <rect x="30" y="60" width="230" height="310" rx="10" fill="#1a1020" stroke="#ff6b6b" stroke-width="1" opacity="0.8"/>
  <rect x="285" y="60" width="230" height="310" rx="10" fill="#101a20" stroke="#00d4aa" stroke-width="1" opacity="0.8"/>
  <rect x="540" y="60" width="230" height="310" rx="10" fill="#101520" stroke="#4a90d9" stroke-width="1" opacity="0.8"/>
  <!-- Devin -->
  <text x="145" y="95" fill="#ff6b6b" text-anchor="middle" font-size="16" font-weight="bold" font-family="sans-serif">Devin</text>
  <text x="145" y="120" fill="#888" text-anchor="middle" font-size="12" font-family="PingFang SC, sans-serif">委托式 · 异步交付</text>
  <rect x="60" y="140" width="170" height="24" rx="4" fill="#2a1a2a"/>
  <rect x="60" y="140" width="150" height="24" rx="4" fill="#ff6b6b" opacity="0.3"/>
  <text x="70" y="157" fill="#ccc" font-size="11" font-family="PingFang SC, sans-serif">自主性 ████████</text>
  <rect x="60" y="172" width="170" height="24" rx="4" fill="#2a1a2a"/>
  <rect x="60" y="172" width="70" height="24" rx="4" fill="#ff6b6b" opacity="0.3"/>
  <text x="70" y="189" fill="#ccc" font-size="11" font-family="PingFang SC, sans-serif">可控性 ███</text>
  <rect x="60" y="204" width="170" height="24" rx="4" fill="#2a1a2a"/>
  <rect x="60" y="204" width="90" height="24" rx="4" fill="#ff6b6b" opacity="0.3"/>
  <text x="70" y="221" fill="#ccc" font-size="11" font-family="PingFang SC, sans-serif">跨文件 ████</text>
  <text x="145" y="265" fill="#ff6b6b" text-anchor="middle" font-size="28" font-weight="bold" font-family="sans-serif">53%</text>
  <text x="145" y="285" fill="#666" text-anchor="middle" font-size="11" font-family="sans-serif">SWE-bench</text>
  <text x="145" y="345" fill="#888" text-anchor="middle" font-size="11" font-family="PingFang SC, sans-serif">适合：批量标准化任务</text>
  <!-- Claude Code -->
  <text x="400" y="95" fill="#00d4aa" text-anchor="middle" font-size="16" font-weight="bold" font-family="sans-serif">Claude Code</text>
  <text x="400" y="120" fill="#888" text-anchor="middle" font-size="12" font-family="PingFang SC, sans-serif">协作式 · 人在回路</text>
  <rect x="315" y="140" width="170" height="24" rx="4" fill="#1a2a2a"/>
  <rect x="315" y="140" width="110" height="24" rx="4" fill="#00d4aa" opacity="0.3"/>
  <text x="325" y="157" fill="#ccc" font-size="11" font-family="PingFang SC, sans-serif">自主性 █████</text>
  <rect x="315" y="172" width="170" height="24" rx="4" fill="#1a2a2a"/>
  <rect x="315" y="172" width="160" height="24" rx="4" fill="#00d4aa" opacity="0.3"/>
  <text x="325" y="189" fill="#ccc" font-size="11" font-family="PingFang SC, sans-serif">可控性 █████████</text>
  <rect x="315" y="204" width="170" height="24" rx="4" fill="#1a2a2a"/>
  <rect x="315" y="204" width="155" height="24" rx="4" fill="#00d4aa" opacity="0.3"/>
  <text x="325" y="221" fill="#ccc" font-size="11" font-family="PingFang SC, sans-serif">跨文件 ████████</text>
  <text x="400" y="265" fill="#00d4aa" text-anchor="middle" font-size="28" font-weight="bold" font-family="sans-serif">72%</text>
  <text x="400" y="285" fill="#666" text-anchor="middle" font-size="11" font-family="sans-serif">SWE-bench</text>
  <text x="400" y="345" fill="#888" text-anchor="middle" font-size="11" font-family="PingFang SC, sans-serif">适合：复杂重构、架构</text>
  <!-- Codex -->
  <text x="655" y="95" fill="#4a90d9" text-anchor="middle" font-size="16" font-weight="bold" font-family="sans-serif">Codex</text>
  <text x="655" y="120" fill="#888" text-anchor="middle" font-size="12" font-family="PingFang SC, sans-serif">审核式 · 云端沙盒</text>
  <rect x="570" y="140" width="170" height="24" rx="4" fill="#1a1a2a"/>
  <rect x="570" y="140" width="130" height="24" rx="4" fill="#4a90d9" opacity="0.3"/>
  <text x="580" y="157" fill="#ccc" font-size="11" font-family="PingFang SC, sans-serif">自主性 ██████</text>
  <rect x="570" y="172" width="170" height="24" rx="4" fill="#1a1a2a"/>
  <rect x="570" y="172" width="130" height="24" rx="4" fill="#4a90d9" opacity="0.3"/>
  <text x="580" y="189" fill="#ccc" font-size="11" font-family="PingFang SC, sans-serif">可控性 ██████</text>
  <rect x="570" y="204" width="170" height="24" rx="4" fill="#1a1a2a"/>
  <rect x="570" y="204" width="120" height="24" rx="4" fill="#4a90d9" opacity="0.3"/>
  <text x="580" y="221" fill="#ccc" font-size="11" font-family="PingFang SC, sans-serif">跨文件 ██████</text>
  <text x="655" y="265" fill="#4a90d9" text-anchor="middle" font-size="28" font-weight="bold" font-family="sans-serif">62%</text>
  <text x="655" y="285" fill="#666" text-anchor="middle" font-size="11" font-family="sans-serif">SWE-bench</text>
  <text x="655" y="345" fill="#888" text-anchor="middle" font-size="11" font-family="PingFang SC, sans-serif">适合：安全合规场景</text>
</svg>
